<?xml version="1.0" standalone="no"?>
<!DOCTYPE svg PUBLIC "-//W3C//DTD SVG 20010904//EN"
 "http://www.w3.org/TR/2001/REC-SVG-20010904/DTD/svg10.dtd">
<svg version="1.0" xmlns="http://www.w3.org/2000/svg"
 width="512.000000pt" height="512.000000pt" viewBox="0 0 512.000000 512.000000"
 preserveAspectRatio="xMidYMid meet">
<metadata>
Created by potrace 1.14, written by Peter Selinger 2001-2017
</metadata>
<g transform="translate(0.000000,512.000000) scale(0.100000,-0.100000)"
fill="#000000" stroke="none">
<path d="M0 2560 l0 -2560 2560 0 2560 0 0 2560 0 2560 -2560 0 -2560 0 0
-2560z m2710 1699 c445 -41 845 -243 1135 -576 589 -673 554 -1698 -79 -2328
-355 -354 -835 -532 -1330 -494 -1025 77 -1741 1014 -1551 2029 25 131 100
344 163 462 86 162 174 280 307 413 196 196 405 326 655 409 254 84 454 108
700 85z"/>
<path d="M2430 3920 c-311 -32 -589 -162 -816 -382 -165 -160 -278 -337 -348
-548 -49 -146 -68 -269 -68 -430 0 -381 146 -720 424 -986 258 -246 577 -374
933 -375 382 -2 726 146 992 424 247 259 375 578 375 937 0 233 -48 431 -152
629 -134 253 -354 468 -608 595 -214 107 -496 159 -732 136z m1060 -436 c0 -3
-99 -220 -221 -482 -121 -262 -253 -547 -292 -632 l-72 -155 -155 -72 c-85
-39 -370 -171 -633 -293 -264 -122 -481 -219 -484 -216 -3 2 104 240 237 528
133 288 265 573 293 634 l51 110 630 292 c347 160 634 292 639 292 4 0 7 -3 7
-6z"/>
<path d="M2485 2726 c-16 -8 -42 -26 -57 -42 -108 -116 -26 -304 131 -304 159
0 241 188 133 304 -51 54 -140 72 -207 42z"/>
</g>
</svg>
